<?xml version="1.0" standalone="no"?>
<!DOCTYPE svg PUBLIC "-//W3C//DTD SVG 20010904//EN"
 "http://www.w3.org/TR/2001/REC-SVG-20010904/DTD/svg10.dtd">

<svg version="1.0" xmlns="http://www.w3.org/2000/svg"
 width="322.000000pt" height="480.000000pt" viewBox="0 0 1000.000000 1000.000000"
 preserveAspectRatio="xMidYMid meet">

        <!--move image to point(100pt 480pt), group all closed path-->
    <g transform="translate(100.000000,480.000000) scale(0.100000,-0.100000)"
    fill="#000000" >
            <!--draw a closed path, and dye #f45537 let every closed path rotate-->
        <path d="M2234 4776 c-69 -16 -176 -57 -234 -90 -49 -28 -160 -113 -160 -124
        0 -4 256 -263 568 -575 l569 -569 42 49 c147 166 220 428 180 649 -24 141 -73
        252 -157 363 -99 130 -242 229 -407 281 -90 29 -307 37 -401 16z"  fill="#f45537">
              <!--rotation from 0 to 360, center=(1610 2400) duration=2s -->
            <!--more detail: https://www.w3.org/TR/SVG/animate.html#AnimateTransformElement-->
               <animateTransform attributeName="transform"
                attributeType="XML"
                type="rotate"
                from="0 1610 2400"
                to="360 1610 2400"
                dur="2s"
                repeatCount="indefinite" />
            <!--type = "translate | scale | rotate | skewX | skewY"-->
            <!--giving negative value to change the direction of rotation such as -359-->
        </path>

        <path d="M837 3562 c-394 -393 -676 -683 -702 -721 -91 -131 -131 -283 -123
        -465 9 -180 61 -308 188 -463 30 -36 336 -352 679 -700 l625 -634 570 570 570
        570 -200 203 c-110 112 -212 223 -226 248 -82 143 -90 282 -23 417 34 70 60
        100 244 286 l205 208 -569 569 c-314 314 -572 570 -575 570 -3 0 -301 -296
        -663 -658z"   fill="#213d6e">
           <animateTransform attributeName="transform"
            attributeType="XML"
            type="rotate"
            from="0 1610 2400"
            to="360 1610 2400"
            dur="2s"
            repeatCount="indefinite" />
        </path>
        <path d="M2406 811 l-568 -568 63 -52 c74 -60 215 -132 309 -157 93 -25 310
        -25 404 0 286 77 500 293 577 581 43 165 23 374 -51 534 -32 68 -103 172 -142
        208 l-24 22 -568 -568z" fill="#f45537" >

           <animateTransform attributeName="transform"
            attributeType="XML"
            type="rotate"
            from="0 1610 2400"
            to="360 1610 2400"
            dur="2s"
            r="100"
            repeatCount="indefinite" />
        </path>
        <!--draw a rectangle width and height equal to 100-->
        <!--<rect width="100" height="100"/>-->
    </g>
</svg>
